<svg width="264" height="293" viewBox="0 0 264 293" fill="none" xmlns="http://www.w3.org/2000/svg">
<path d="M116.255 82.836L0.701172 174.211L25.6858 205.993C25.6858 205.993 68.5166 186.57 128.301 198.047V203.344C128.301 203.344 78.3319 190.102 28.3627 209.524L92.6089 291.629L173.809 228.064C173.809 228.064 172.917 223.65 157.747 216.587L160.424 210.407C160.424 210.407 174.701 215.704 180.055 222.767L208.609 200.696L192.547 181.273C192.547 181.273 202.363 173.328 232.701 185.687L228.24 160.085C228.24 160.085 200.578 151.257 189.87 157.436C189.87 157.436 190.763 158.319 175.593 160.085L168.455 150.374C168.455 150.374 172.024 140.662 170.24 130.951L179.163 130.068L180.055 122.123C180.055 122.123 193.44 111.528 196.117 113.294C196.117 113.294 213.07 94.7544 221.101 92.9887C221.101 92.9887 235.378 92.9887 230.024 85.0431C230.024 85.0431 230.917 83.2774 223.778 80.6289C223.778 80.6289 216.64 85.0431 214.855 89.4574C214.855 89.4574 181.84 111.528 174.701 109.763V107.997C174.701 107.997 179.163 107.114 174.701 103.583V95.6373C174.701 95.6373 180.947 94.7544 174.701 92.1059V87.6917L169.347 82.3946H152.393L146.147 92.1059L145.255 96.5201L132.763 100.052V100.934L145.255 100.052V106.231L147.932 110.646C147.932 110.646 144.363 108.88 143.47 112.411H139.009L116.255 82.836Z" fill="#CDE2E9" stroke="#CDE2E9" stroke-miterlimit="10"/>
<path d="M232.701 166.18L234.466 179.204C234.466 179.204 244.172 181.809 250.348 186.15C250.348 186.15 257.407 188.755 257.407 181.809V174.863L262.701 167.917V159.234L260.054 156.629C260.054 156.629 256.525 162.707 256.525 166.18L250.348 172.258H245.054L232.701 166.18Z" fill="#CDE2E9" stroke="#CDE2E9" stroke-miterlimit="10"/>
<path d="M232.247 91.6289L257.701 114.162L254.065 117.629L227.701 95.0956L232.247 91.6289Z" fill="#CDE2E9" stroke="#CDE2E9" stroke-miterlimit="10"/>
<path d="M218.701 80.2079L138.771 0.628906L134.331 3.28154L145.876 14.7763C145.876 14.7763 97.918 35.1131 91.7012 39.5342V58.1026C91.7012 58.1026 111.24 48.3763 142.324 46.6079L174.296 45.7236L214.261 84.6289L218.701 80.2079Z" fill="#CDE2E9" stroke="#CDE2E9" stroke-miterlimit="10"/>
<path d="M118.701 55.4289V63.2289C118.701 63.2289 58.9838 72.7622 36.7012 86.6289C36.7012 86.6289 62.549 58.8956 86.6142 47.6289V64.0956C86.6142 64.0956 110.679 54.5622 118.701 55.4289Z" fill="#CDE2E9" stroke="#CDE2E9" stroke-miterlimit="10"/>
<path d="M148.428 20.6289L165.701 39.6289H158.428L152.974 33.2956L150.247 34.2003L154.792 39.6289H147.519L135.701 26.0575L141.156 24.248L145.701 29.6765L148.428 28.7718L142.974 22.4384L148.428 20.6289Z" fill="#39576C" stroke="#39576C" stroke-miterlimit="10"/>
<path d="M175.737 160.241L192.701 181.402L171.273 186.693C171.273 186.693 163.237 186.693 159.665 202.563C159.665 202.563 150.737 229.015 139.13 244.004C139.13 244.004 135.558 247.53 126.63 237.832C126.63 237.832 123.058 236.068 107.88 232.541L101.63 212.262L118.594 217.552H131.094L131.987 193.746L128.415 186.693V176.112L130.201 127.618C130.201 127.618 117.701 121.446 109.665 120.564C109.665 120.564 106.987 120.564 105.201 122.328H92.7012L100.737 113.511L105.201 115.274H124.844C124.844 115.274 130.201 117.037 131.987 114.392L139.13 112.629L168.594 150.542L166.808 161.123L175.737 160.241Z" fill="#39576C" stroke="#39576C" stroke-miterlimit="10"/>
<path d="M103.701 229.629L100.184 217.32C100.184 217.32 95.7866 218.2 92.269 209.408C92.269 209.408 90.5102 205.891 83.475 213.804C83.475 213.804 80.8369 215.562 69.4047 218.2C69.4047 218.2 65.0077 221.716 78.1987 221.716L92.269 225.233L103.701 229.629Z" fill="#39576C" stroke="#39576C" stroke-miterlimit="10"/>
</svg>
